<mxfile host="app.diagrams.net" agent="Mozilla/5.0 (Windows NT 10.0; Win64; x64) AppleWebKit/537.36 (KHTML, like Gecko) Chrome/131.0.0.0 Safari/537.36 OPR/116.0.0.0" version="26.0.11">
  <diagram name="Página-1" id="K_EGD0TMypSHae15c-I5">
    <mxGraphModel dx="2459" dy="1922" grid="1" gridSize="10" guides="1" tooltips="1" connect="1" arrows="1" fold="1" page="1" pageScale="1" pageWidth="827" pageHeight="1169" math="0" shadow="0">
      <root>
        <mxCell id="0" />
        <mxCell id="1" parent="0" />
        <mxCell id="TVXeCQi6dq-kcTkniq2x-1" value="" style="edgeStyle=orthogonalEdgeStyle;rounded=0;orthogonalLoop=1;jettySize=auto;html=1;" edge="1" parent="1" source="TVXeCQi6dq-kcTkniq2x-2" target="TVXeCQi6dq-kcTkniq2x-8">
          <mxGeometry relative="1" as="geometry" />
        </mxCell>
        <mxCell id="TVXeCQi6dq-kcTkniq2x-2" value="Realiza Empréstimo" style="ellipse;whiteSpace=wrap;html=1;" vertex="1" parent="1">
          <mxGeometry x="190" y="50" width="120" height="80" as="geometry" />
        </mxCell>
        <mxCell id="TVXeCQi6dq-kcTkniq2x-3" value="" style="edgeStyle=orthogonalEdgeStyle;rounded=0;orthogonalLoop=1;jettySize=auto;html=1;" edge="1" parent="1" source="TVXeCQi6dq-kcTkniq2x-4" target="TVXeCQi6dq-kcTkniq2x-2">
          <mxGeometry relative="1" as="geometry" />
        </mxCell>
        <mxCell id="TVXeCQi6dq-kcTkniq2x-4" value="Funcionário Biblioteca" style="shape=umlActor;verticalLabelPosition=bottom;verticalAlign=top;html=1;outlineConnect=0;" vertex="1" parent="1">
          <mxGeometry x="60" y="60" width="30" height="60" as="geometry" />
        </mxCell>
        <mxCell id="TVXeCQi6dq-kcTkniq2x-5" value="" style="edgeStyle=orthogonalEdgeStyle;rounded=0;orthogonalLoop=1;jettySize=auto;html=1;" edge="1" parent="1" source="TVXeCQi6dq-kcTkniq2x-6" target="TVXeCQi6dq-kcTkniq2x-18">
          <mxGeometry relative="1" as="geometry" />
        </mxCell>
        <mxCell id="TVXeCQi6dq-kcTkniq2x-6" value="Valida a data limite do empréstimo" style="ellipse;whiteSpace=wrap;html=1;" vertex="1" parent="1">
          <mxGeometry x="500" y="50" width="140" height="80" as="geometry" />
        </mxCell>
        <mxCell id="TVXeCQi6dq-kcTkniq2x-7" value="" style="edgeStyle=orthogonalEdgeStyle;rounded=0;orthogonalLoop=1;jettySize=auto;html=1;" edge="1" parent="1" source="TVXeCQi6dq-kcTkniq2x-8" target="TVXeCQi6dq-kcTkniq2x-6">
          <mxGeometry relative="1" as="geometry" />
        </mxCell>
        <mxCell id="TVXeCQi6dq-kcTkniq2x-8" value="Sistema" style="shape=umlActor;verticalLabelPosition=bottom;verticalAlign=top;html=1;outlineConnect=0;" vertex="1" parent="1">
          <mxGeometry x="384" y="60" width="30" height="60" as="geometry" />
        </mxCell>
        <mxCell id="TVXeCQi6dq-kcTkniq2x-9" value="" style="edgeStyle=orthogonalEdgeStyle;rounded=0;orthogonalLoop=1;jettySize=auto;html=1;entryX=0.5;entryY=0;entryDx=0;entryDy=0;" edge="1" parent="1" source="TVXeCQi6dq-kcTkniq2x-8" target="TVXeCQi6dq-kcTkniq2x-13">
          <mxGeometry relative="1" as="geometry">
            <mxPoint x="414" y="230" as="sourcePoint" />
            <mxPoint x="244" y="350" as="targetPoint" />
            <Array as="points">
              <mxPoint x="399" y="340" />
              <mxPoint x="399" y="340" />
            </Array>
          </mxGeometry>
        </mxCell>
        <mxCell id="TVXeCQi6dq-kcTkniq2x-10" value="" style="edgeStyle=orthogonalEdgeStyle;rounded=0;orthogonalLoop=1;jettySize=auto;html=1;" edge="1" parent="1" source="TVXeCQi6dq-kcTkniq2x-11" target="TVXeCQi6dq-kcTkniq2x-15">
          <mxGeometry relative="1" as="geometry">
            <mxPoint x="-255" y="230" as="targetPoint" />
          </mxGeometry>
        </mxCell>
        <mxCell id="TVXeCQi6dq-kcTkniq2x-11" value="Mostra data de entrega" style="ellipse;whiteSpace=wrap;html=1;" vertex="1" parent="1">
          <mxGeometry x="-315" y="350" width="120" height="80" as="geometry" />
        </mxCell>
        <mxCell id="TVXeCQi6dq-kcTkniq2x-12" value="" style="edgeStyle=orthogonalEdgeStyle;rounded=0;orthogonalLoop=1;jettySize=auto;html=1;entryX=1;entryY=0.5;entryDx=0;entryDy=0;" edge="1" parent="1" source="TVXeCQi6dq-kcTkniq2x-13" target="TVXeCQi6dq-kcTkniq2x-11">
          <mxGeometry relative="1" as="geometry">
            <mxPoint x="50" y="390" as="targetPoint" />
          </mxGeometry>
        </mxCell>
        <mxCell id="TVXeCQi6dq-kcTkniq2x-13" value="Valida os dados inseridos" style="ellipse;whiteSpace=wrap;html=1;" vertex="1" parent="1">
          <mxGeometry x="339" y="350" width="120" height="80" as="geometry" />
        </mxCell>
        <mxCell id="TVXeCQi6dq-kcTkniq2x-14" value="" style="edgeStyle=orthogonalEdgeStyle;rounded=0;orthogonalLoop=1;jettySize=auto;html=1;" edge="1" parent="1" source="TVXeCQi6dq-kcTkniq2x-15" target="TVXeCQi6dq-kcTkniq2x-17">
          <mxGeometry relative="1" as="geometry" />
        </mxCell>
        <mxCell id="TVXeCQi6dq-kcTkniq2x-15" value="Aluno" style="shape=umlActor;verticalLabelPosition=bottom;verticalAlign=top;html=1;outlineConnect=0;" vertex="1" parent="1">
          <mxGeometry x="-270" y="60" width="30" height="60" as="geometry" />
        </mxCell>
        <mxCell id="TVXeCQi6dq-kcTkniq2x-16" value="" style="edgeStyle=orthogonalEdgeStyle;rounded=0;orthogonalLoop=1;jettySize=auto;html=1;" edge="1" parent="1" source="TVXeCQi6dq-kcTkniq2x-17" target="TVXeCQi6dq-kcTkniq2x-4">
          <mxGeometry relative="1" as="geometry" />
        </mxCell>
        <mxCell id="TVXeCQi6dq-kcTkniq2x-17" value="Solicita o empréstimo" style="ellipse;whiteSpace=wrap;html=1;" vertex="1" parent="1">
          <mxGeometry x="-150" y="50" width="130" height="80" as="geometry" />
        </mxCell>
        <mxCell id="TVXeCQi6dq-kcTkniq2x-18" value="Enviar Notificação ao aluno" style="ellipse;whiteSpace=wrap;html=1;" vertex="1" parent="1">
          <mxGeometry x="500" y="-130" width="140" height="80" as="geometry" />
        </mxCell>
        <mxCell id="TVXeCQi6dq-kcTkniq2x-19" value="Notificar o Funcionário" style="ellipse;whiteSpace=wrap;html=1;" vertex="1" parent="1">
          <mxGeometry x="660" y="-130" width="140" height="80" as="geometry" />
        </mxCell>
        <mxCell id="TVXeCQi6dq-kcTkniq2x-20" value="" style="edgeStyle=orthogonalEdgeStyle;rounded=0;orthogonalLoop=1;jettySize=auto;html=1;" edge="1" parent="1">
          <mxGeometry relative="1" as="geometry">
            <mxPoint x="570" y="10" as="sourcePoint" />
            <mxPoint x="729.5" y="-50" as="targetPoint" />
          </mxGeometry>
        </mxCell>
        <mxCell id="TVXeCQi6dq-kcTkniq2x-21" value="&lt;span style=&quot;font-size: 12px; text-wrap-mode: wrap; background-color: rgb(251, 251, 251);&quot;&gt;Nº de Emprétimo (ID)&lt;br&gt;+&lt;br&gt;Data de Entrega,&amp;nbsp;&lt;/span&gt;&lt;div&gt;&lt;span style=&quot;font-size: 12px; text-wrap-mode: wrap; background-color: rgb(251, 251, 251);&quot;&gt;+&lt;br&gt;Nº Aluno&lt;br&gt;+&lt;br&gt;&amp;nbsp;Email&lt;/span&gt;&lt;/div&gt;" style="html=1;verticalAlign=bottom;endArrow=open;dashed=1;endSize=8;curved=0;rounded=0;exitX=0.5;exitY=0;exitDx=0;exitDy=0;" edge="1" parent="1" source="TVXeCQi6dq-kcTkniq2x-19">
          <mxGeometry x="-0.6552" y="-40" relative="1" as="geometry">
            <mxPoint x="730" y="-170" as="sourcePoint" />
            <mxPoint x="730" y="-420" as="targetPoint" />
            <mxPoint as="offset" />
          </mxGeometry>
        </mxCell>
        <mxCell id="TVXeCQi6dq-kcTkniq2x-22" value="&lt;span style=&quot;font-size: 12px; text-wrap-mode: wrap; background-color: rgb(251, 251, 251);&quot;&gt;Nome do Livro&lt;br&gt;+&lt;br&gt;Data de Entrega&lt;/span&gt;" style="html=1;verticalAlign=bottom;endArrow=open;dashed=1;endSize=8;curved=0;rounded=0;exitX=0.5;exitY=0;exitDx=0;exitDy=0;" edge="1" parent="1">
          <mxGeometry x="-0.375" y="-30" relative="1" as="geometry">
            <mxPoint x="569.5" y="-130" as="sourcePoint" />
            <mxPoint x="570" y="-380" as="targetPoint" />
            <mxPoint x="1" as="offset" />
          </mxGeometry>
        </mxCell>
      </root>
    </mxGraphModel>
  </diagram>
</mxfile>
